<svg id="Icon_-_Instagram" data-name="Icon - Instagram" xmlns="http://www.w3.org/2000/svg" width="23.206" height="23.206" viewBox="0 0 23.206 23.206">
  <g id="グループ_1486" data-name="グループ 1486">
    <path id="パス_784" data-name="パス 784" d="M-101.421,186.624a4.118,4.118,0,0,1,4.113,4.113v9.381a4.118,4.118,0,0,1-4.113,4.113H-110.8a4.118,4.118,0,0,1-4.113-4.113v-9.381a4.118,4.118,0,0,1,4.113-4.113h9.381m0-2.8H-110.8a6.933,6.933,0,0,0-6.912,6.912v9.381a6.933,6.933,0,0,0,6.912,6.912h9.381a6.933,6.933,0,0,0,6.912-6.912v-9.381a6.933,6.933,0,0,0-6.912-6.912Z" transform="translate(117.715 -183.825)" fill="#fff"/>
    <path id="パス_785" data-name="パス 785" d="M-83.234,191.825a1.481,1.481,0,0,0-1.481,1.481,1.481,1.481,0,0,0,1.481,1.481,1.481,1.481,0,0,0,1.481-1.481,1.481,1.481,0,0,0-1.481-1.481Z" transform="translate(101.009 -187.875)" fill="#fff"/>
    <g id="グループ_1485" data-name="グループ 1485" transform="translate(5.431 5.431)">
      <path id="パス_786" data-name="パス 786" d="M-100.543,197.624A3.376,3.376,0,0,1-97.171,201a3.376,3.376,0,0,1-3.372,3.372A3.376,3.376,0,0,1-103.916,201a3.376,3.376,0,0,1,3.373-3.373m0-2.8A6.171,6.171,0,0,0-106.715,201a6.172,6.172,0,0,0,6.172,6.172A6.172,6.172,0,0,0-94.371,201a6.172,6.172,0,0,0-6.172-6.172Z" transform="translate(106.715 -194.825)" fill="#fff"/>
    </g>
  </g>
</svg>
