<svg xmlns="http://www.w3.org/2000/svg" width="24.261" height="23.206" viewBox="0 0 24.261 23.206">
  <path id="パス_783" data-name="パス 783" d="M1907.261,990.493l-.008.006c-.171-5.269-5.53-9.5-12.122-9.5-6.7,0-12.131,4.369-12.131,9.757,0,5.1,4.873,9.289,11.08,9.718.336.531.6,1.6,0,3.731,0,0,11.624-3.256,13.042-11.949a7.938,7.938,0,0,0,.143-1.5c0-.05,0-.1,0-.149S1907.261,990.532,1907.261,990.493Zm-16.35,3.428a.264.264,0,0,1-.264.264h-2.9a.264.264,0,0,1-.264-.264v-5.8a.264.264,0,0,1,.264-.264h.527a.264.264,0,0,1,.264.264v5.01h2.11a.264.264,0,0,1,.264.264Zm1.846,0a.264.264,0,0,1-.264.264h-.527a.264.264,0,0,1-.264-.264v-5.8a.264.264,0,0,1,.264-.264h.527a.264.264,0,0,1,.264.264Zm5.8,0a.264.264,0,0,1-.264.264h-.576a.264.264,0,0,1-.222-.122l-2.629-4.132v3.99a.264.264,0,0,1-.264.264h-.527a.264.264,0,0,1-.264-.264v-5.8a.264.264,0,0,1,.264-.264h.576a.264.264,0,0,1,.223.122l2.629,4.132v-3.99a.264.264,0,0,1,.264-.264h.527a.264.264,0,0,1,.264.264Zm5.01-5.286a.264.264,0,0,1-.264.264h-2.649v1.764h2.649a.264.264,0,0,1,.264.264v.527a.263.263,0,0,1-.264.264h-2.649v1.425h2.649a.264.264,0,0,1,.264.264v.5a.264.264,0,0,1-.264.264h-3.416a.264.264,0,0,1-.264-.264v-5.777a.264.264,0,0,1,.264-.264h3.416a.264.264,0,0,1,.264.264Z" transform="translate(-1883 -981)" fill="#fff"/>
</svg>
