<svg xmlns="http://www.w3.org/2000/svg" width="23.206" height="19.006" viewBox="0 0 23.206 19.006">
  <path id="パス_779" data-name="パス 779" d="M1817.627,918.881a4.7,4.7,0,0,1,3.041-5.458c2.381-1.079,4.809,1.229,4.809,1.229l2.9-1.158c0,1.243-2.072,2.486-2.072,2.486a10.12,10.12,0,0,0,2.9-.414c0,.414-2.486,2.486-2.486,2.486,0,9.945-7.459,14.089-13.675,14.089s-7.045-2.486-7.045-2.486c4.973,0,6.631-2.072,6.631-2.072-1.243.829-4.144-2.9-4.144-2.9a4.749,4.749,0,0,0,2.486,0c-2.486-.414-4.144-4.973-4.144-4.973.414.829,2.486.829,2.486.829-3.315-3.315-1.658-6.63-1.658-6.63C1810.144,918.052,1817.627,918.881,1817.627,918.881Z" transform="translate(-1806 -913.135)" fill="#fff"/>
</svg>
